<?xml version="1.0" standalone="no"?>
<!DOCTYPE svg PUBLIC "-//W3C//DTD SVG 20010904//EN"
 "http://www.w3.org/TR/2001/REC-SVG-20010904/DTD/svg10.dtd">
<svg version="1.0" xmlns="http://www.w3.org/2000/svg"
 width="64.000000pt" height="64.000000pt" viewBox="0 0 64.000000 64.000000"
 preserveAspectRatio="xMidYMid meet">

<g transform="translate(0.000000,64.000000) scale(0.100000,-0.100000)"
fill="white" stroke="none">
<path d="M7 633 c-19 -18 4 -49 130 -175 l138 -138 -139 -139 c-97 -97 -137
-144 -134 -157 9 -46 40 -26 179 112 l139 139 139 -139 c100 -99 144 -137 155
-133 43 17 29 39 -110 178 l-139 139 139 139 c115 115 137 142 131 160 -3 11
-14 21 -23 21 -9 0 -79 -62 -154 -137 l-138 -138 -138 138 c-126 126 -157 149
-175 130z"/>
</g>
</svg>
