<?xml version="1.0" standalone="no"?>
<!DOCTYPE svg PUBLIC "-//W3C//DTD SVG 20010904//EN"
 "http://www.w3.org/TR/2001/REC-SVG-20010904/DTD/svg10.dtd">
<svg version="1.0" xmlns="http://www.w3.org/2000/svg"
 width="64.000000pt" height="64.000000pt" viewBox="0 0 64.000000 64.000000"
 preserveAspectRatio="xMidYMid meet">

<g transform="translate(0.000000,64.000000) scale(0.100000,-0.100000)"
fill="white" stroke="none">
<path d="M14 566 c-15 -12 -17 -18 -8 -33 10 -17 33 -18 314 -18 281 0 304 1
314 18 9 15 7 21 -8 33 -29 21 -583 21 -612 0z"/>
<path d="M4 335 c-4 -8 -4 -22 0 -30 5 -13 47 -15 318 -13 l313 3 0 25 0 25
-313 3 c-271 2 -313 0 -318 -13z"/>
<path d="M12 118 c-18 -18 -15 -36 7 -48 12 -6 127 -10 303 -10 232 0 288 3
304 14 15 12 17 18 8 33 -10 17 -34 18 -310 21 -225 2 -303 -1 -312 -10z"/>
</g>
</svg>
